<svg width="207" height="34" viewBox="0 0 207 34" fill="none" xmlns="http://www.w3.org/2000/svg">
<rect width="207" height="34" rx="3" fill="url(#paint0_linear_1_5)"/>
<path d="M21.222 22V12.9H25.486C26.578 12.9 27.41 13.1167 27.982 13.55C28.554 13.9747 28.84 14.5467 28.84 15.266C28.84 15.7513 28.7273 16.1673 28.502 16.514C28.2767 16.852 27.9733 17.1163 27.592 17.307C27.2193 17.489 26.812 17.58 26.37 17.58L26.604 17.112C27.1153 17.112 27.5747 17.2073 27.982 17.398C28.3893 17.58 28.71 17.8487 28.944 18.204C29.1867 18.5593 29.308 19.0013 29.308 19.53C29.308 20.31 29.009 20.9167 28.411 21.35C27.813 21.7833 26.9247 22 25.746 22H21.222ZM22.912 20.674H25.642C26.2747 20.674 26.76 20.57 27.098 20.362C27.436 20.154 27.605 19.8203 27.605 19.361C27.605 18.9103 27.436 18.581 27.098 18.373C26.76 18.1563 26.2747 18.048 25.642 18.048H22.782V16.735H25.304C25.8933 16.735 26.344 16.631 26.656 16.423C26.9767 16.215 27.137 15.903 27.137 15.487C27.137 15.0623 26.9767 14.746 26.656 14.538C26.344 14.33 25.8933 14.226 25.304 14.226H22.912V20.674ZM30.3446 22V20.869L33.9586 17.437C34.262 17.151 34.4873 16.8997 34.6346 16.683C34.782 16.4663 34.8773 16.267 34.9206 16.085C34.9726 15.8943 34.9986 15.7167 34.9986 15.552C34.9986 15.136 34.8556 14.8153 34.5696 14.59C34.2836 14.356 33.8633 14.239 33.3086 14.239C32.8666 14.239 32.4636 14.317 32.0996 14.473C31.7443 14.629 31.4366 14.8673 31.1766 15.188L29.9936 14.278C30.349 13.8013 30.8256 13.433 31.4236 13.173C32.0303 12.9043 32.7063 12.77 33.4516 12.77C34.1103 12.77 34.6823 12.8783 35.1676 13.095C35.6616 13.303 36.0386 13.602 36.2986 13.992C36.5673 14.382 36.7016 14.8457 36.7016 15.383C36.7016 15.6777 36.6626 15.9723 36.5846 16.267C36.5066 16.553 36.3593 16.8563 36.1426 17.177C35.926 17.4977 35.6096 17.8573 35.1936 18.256L32.0866 21.207L31.7356 20.57H37.0526V22H30.3446ZM38.6781 22V12.9H42.9421C44.0341 12.9 44.8661 13.1167 45.4381 13.55C46.0101 13.9747 46.2961 14.5467 46.2961 15.266C46.2961 15.7513 46.1834 16.1673 45.9581 16.514C45.7327 16.852 45.4294 17.1163 45.0481 17.307C44.6754 17.489 44.2681 17.58 43.8261 17.58L44.0601 17.112C44.5714 17.112 45.0307 17.2073 45.4381 17.398C45.8454 17.58 46.1661 17.8487 46.4001 18.204C46.6427 18.5593 46.7641 19.0013 46.7641 19.53C46.7641 20.31 46.4651 20.9167 45.8671 21.35C45.2691 21.7833 44.3807 22 43.2021 22H38.6781ZM40.3681 20.674H43.0981C43.7307 20.674 44.2161 20.57 44.5541 20.362C44.8921 20.154 45.0611 19.8203 45.0611 19.361C45.0611 18.9103 44.8921 18.581 44.5541 18.373C44.2161 18.1563 43.7307 18.048 43.0981 18.048H40.2381V16.735H42.7601C43.3494 16.735 43.8001 16.631 44.1121 16.423C44.4327 16.215 44.5931 15.903 44.5931 15.487C44.5931 15.0623 44.4327 14.746 44.1121 14.538C43.8001 14.33 43.3494 14.226 42.7601 14.226H40.3681V20.674ZM52.0305 22V15.058H58.6865V22H57.0745V16.059L57.4515 16.436H53.2785L53.6555 16.059V22H52.0305ZM63.9731 22.091C63.2624 22.091 62.6298 21.9393 62.0751 21.636C61.5204 21.324 61.0828 20.8993 60.7621 20.362C60.4414 19.8247 60.2811 19.2137 60.2811 18.529C60.2811 17.8357 60.4414 17.2247 60.7621 16.696C61.0828 16.1587 61.5204 15.7383 62.0751 15.435C62.6298 15.1317 63.2624 14.98 63.9731 14.98C64.6924 14.98 65.3294 15.1317 65.8841 15.435C66.4474 15.7383 66.8851 16.1543 67.1971 16.683C67.5178 17.2117 67.6781 17.827 67.6781 18.529C67.6781 19.2137 67.5178 19.8247 67.1971 20.362C66.8851 20.8993 66.4474 21.324 65.8841 21.636C65.3294 21.9393 64.6924 22.091 63.9731 22.091ZM63.9731 20.7C64.3718 20.7 64.7271 20.6133 65.0391 20.44C65.3511 20.2667 65.5938 20.0153 65.7671 19.686C65.9491 19.3567 66.0401 18.971 66.0401 18.529C66.0401 18.0783 65.9491 17.6927 65.7671 17.372C65.5938 17.0427 65.3511 16.7913 65.0391 16.618C64.7271 16.4447 64.3761 16.358 63.9861 16.358C63.5874 16.358 63.2321 16.4447 62.9201 16.618C62.6168 16.7913 62.3741 17.0427 62.1921 17.372C62.0101 17.6927 61.9191 18.0783 61.9191 18.529C61.9191 18.971 62.0101 19.3567 62.1921 19.686C62.3741 20.0153 62.6168 20.2667 62.9201 20.44C63.2321 20.6133 63.5831 20.7 63.9731 20.7ZM73.1314 22.091C72.5681 22.091 72.0524 21.961 71.5844 21.701C71.1251 21.441 70.7567 21.051 70.4794 20.531C70.2107 20.0023 70.0764 19.335 70.0764 18.529C70.0764 17.7143 70.2064 17.047 70.4664 16.527C70.7351 16.007 71.0991 15.6213 71.5584 15.37C72.0177 15.11 72.5421 14.98 73.1314 14.98C73.8161 14.98 74.4184 15.1273 74.9384 15.422C75.4671 15.7167 75.8831 16.1283 76.1864 16.657C76.4984 17.1857 76.6544 17.8097 76.6544 18.529C76.6544 19.2483 76.4984 19.8767 76.1864 20.414C75.8831 20.9427 75.4671 21.3543 74.9384 21.649C74.4184 21.9437 73.8161 22.091 73.1314 22.091ZM69.2834 24.522V15.058H70.8304V16.696L70.7784 18.542L70.9084 20.388V24.522H69.2834ZM72.9494 20.7C73.3394 20.7 73.6861 20.6133 73.9894 20.44C74.3014 20.2667 74.5484 20.0153 74.7304 19.686C74.9124 19.3567 75.0034 18.971 75.0034 18.529C75.0034 18.0783 74.9124 17.6927 74.7304 17.372C74.5484 17.0427 74.3014 16.7913 73.9894 16.618C73.6861 16.4447 73.3394 16.358 72.9494 16.358C72.5594 16.358 72.2084 16.4447 71.8964 16.618C71.5844 16.7913 71.3374 17.0427 71.1554 17.372C70.9734 17.6927 70.8824 18.0783 70.8824 18.529C70.8824 18.971 70.9734 19.3567 71.1554 19.686C71.3374 20.0153 71.5844 20.2667 71.8964 20.44C72.2084 20.6133 72.5594 20.7 72.9494 20.7ZM79.4608 22V16.046L79.8378 16.436H77.0168V15.058H83.5168V16.436H80.7088L81.0858 16.046V22H79.4608ZM88.9075 22V20.596L88.8165 20.297V17.84C88.8165 17.3633 88.6735 16.995 88.3875 16.735C88.1015 16.4663 87.6682 16.332 87.0875 16.332C86.6975 16.332 86.3118 16.3927 85.9305 16.514C85.5578 16.6353 85.2415 16.8043 84.9815 17.021L84.3445 15.838C84.7172 15.552 85.1592 15.3397 85.6705 15.201C86.1905 15.0537 86.7278 14.98 87.2825 14.98C88.2878 14.98 89.0635 15.2227 89.6095 15.708C90.1642 16.1847 90.4415 16.9257 90.4415 17.931V22H88.9075ZM86.7235 22.091C86.2035 22.091 85.7485 22.0043 85.3585 21.831C84.9685 21.649 84.6652 21.402 84.4485 21.09C84.2405 20.7693 84.1365 20.4097 84.1365 20.011C84.1365 19.621 84.2275 19.27 84.4095 18.958C84.6002 18.646 84.9078 18.399 85.3325 18.217C85.7572 18.035 86.3205 17.944 87.0225 17.944H89.0375V19.023H87.1395C86.5848 19.023 86.2122 19.114 86.0215 19.296C85.8308 19.4693 85.7355 19.686 85.7355 19.946C85.7355 20.2407 85.8525 20.4747 86.0865 20.648C86.3205 20.8213 86.6455 20.908 87.0615 20.908C87.4602 20.908 87.8155 20.817 88.1275 20.635C88.4482 20.453 88.6778 20.1843 88.8165 19.829L89.0895 20.804C88.9335 21.2113 88.6518 21.5277 88.2445 21.753C87.8458 21.9783 87.3388 22.091 86.7235 22.091ZM91.4384 21.987L91.5164 20.622C91.577 20.6307 91.6334 20.6393 91.6854 20.648C91.7374 20.6567 91.785 20.661 91.8284 20.661C92.097 20.661 92.305 20.5787 92.4524 20.414C92.5997 20.2493 92.708 20.0283 92.7774 19.751C92.8554 19.465 92.9074 19.1487 92.9334 18.802C92.968 18.4467 92.994 18.0913 93.0114 17.736L93.1284 15.058H98.7444V22H97.1194V15.994L97.4964 16.436H94.1944L94.5454 15.981L94.4544 17.814C94.4284 18.4293 94.3764 19.0013 94.2984 19.53C94.229 20.05 94.1164 20.505 93.9604 20.895C93.813 21.285 93.605 21.5883 93.3364 21.805C93.0764 22.0217 92.7427 22.13 92.3354 22.13C92.2054 22.13 92.0624 22.117 91.9064 22.091C91.759 22.065 91.603 22.0303 91.4384 21.987ZM109.284 21.246V16.436H106.619L106.58 17.554C106.562 17.9527 106.536 18.3383 106.502 18.711C106.467 19.075 106.411 19.413 106.333 19.725C106.255 20.0283 106.142 20.2797 105.995 20.479C105.847 20.6783 105.652 20.8083 105.41 20.869L103.798 20.622C104.058 20.622 104.266 20.5397 104.422 20.375C104.586 20.2017 104.712 19.9677 104.799 19.673C104.894 19.3697 104.963 19.0273 105.007 18.646C105.05 18.256 105.08 17.853 105.098 17.437L105.189 15.058H110.909V21.246H109.284ZM103.551 23.547V20.622H111.936V23.547H110.415V22H105.059V23.547H103.551ZM112.373 21.987L112.451 20.622C112.512 20.6307 112.568 20.6393 112.62 20.648C112.672 20.6567 112.72 20.661 112.763 20.661C113.032 20.661 113.24 20.5787 113.387 20.414C113.534 20.2493 113.643 20.0283 113.712 19.751C113.79 19.465 113.842 19.1487 113.868 18.802C113.903 18.4467 113.929 18.0913 113.946 17.736L114.063 15.058H119.679V22H118.054V15.994L118.431 16.436H115.129L115.48 15.981L115.389 17.814C115.363 18.4293 115.311 19.0013 115.233 19.53C115.164 20.05 115.051 20.505 114.895 20.895C114.748 21.285 114.54 21.5883 114.271 21.805C114.011 22.0217 113.677 22.13 113.27 22.13C113.14 22.13 112.997 22.117 112.841 22.091C112.694 22.065 112.538 22.0303 112.373 21.987ZM126.274 22V19.634L126.508 19.907H124.428C123.475 19.907 122.725 19.7077 122.179 19.309C121.642 18.9017 121.373 18.3167 121.373 17.554C121.373 16.7393 121.659 16.1197 122.231 15.695C122.812 15.2703 123.583 15.058 124.545 15.058H127.73V22H126.274ZM121.282 22L123.154 19.348H124.818L123.024 22H121.282ZM126.274 19.114V15.994L126.508 16.423H124.597C124.095 16.423 123.705 16.5183 123.427 16.709C123.159 16.891 123.024 17.19 123.024 17.606C123.024 18.386 123.531 18.776 124.545 18.776H126.508L126.274 19.114ZM133.509 22V15.058H135.134V17.749H137.201V19.218H135.134V22H133.509ZM139.853 22.091C139.16 22.091 138.54 21.9393 137.994 21.636C137.457 21.324 137.032 20.8993 136.72 20.362C136.408 19.8247 136.252 19.2137 136.252 18.529C136.252 17.8357 136.408 17.2203 136.72 16.683C137.032 16.1457 137.457 15.7297 137.994 15.435C138.54 15.1317 139.16 14.98 139.853 14.98C140.555 14.98 141.175 15.1317 141.712 15.435C142.258 15.7297 142.687 16.1457 142.999 16.683C143.311 17.2203 143.467 17.8357 143.467 18.529C143.467 19.2137 143.311 19.829 142.999 20.375C142.687 20.9123 142.258 21.3327 141.712 21.636C141.175 21.9393 140.555 22.091 139.853 22.091ZM139.853 20.713C140.243 20.713 140.585 20.622 140.88 20.44C141.183 20.258 141.422 20.0067 141.595 19.686C141.768 19.3653 141.855 18.9797 141.855 18.529C141.855 18.0783 141.768 17.6927 141.595 17.372C141.422 17.0427 141.183 16.7913 140.88 16.618C140.585 16.4447 140.247 16.358 139.866 16.358C139.485 16.358 139.142 16.4447 138.839 16.618C138.536 16.7913 138.297 17.0427 138.124 17.372C137.951 17.6927 137.864 18.0783 137.864 18.529C137.864 18.9797 137.951 19.3653 138.124 19.686C138.297 20.0067 138.536 20.258 138.839 20.44C139.142 20.622 139.48 20.713 139.853 20.713ZM148.91 22.091C148.346 22.091 147.831 21.961 147.363 21.701C146.903 21.441 146.535 21.051 146.258 20.531C145.989 20.0023 145.855 19.335 145.855 18.529C145.855 17.7143 145.985 17.047 146.245 16.527C146.513 16.007 146.877 15.6213 147.337 15.37C147.796 15.11 148.32 14.98 148.91 14.98C149.594 14.98 150.197 15.1273 150.717 15.422C151.245 15.7167 151.661 16.1283 151.965 16.657C152.277 17.1857 152.433 17.8097 152.433 18.529C152.433 19.2483 152.277 19.8767 151.965 20.414C151.661 20.9427 151.245 21.3543 150.717 21.649C150.197 21.9437 149.594 22.091 148.91 22.091ZM145.062 24.522V15.058H146.609V16.696L146.557 18.542L146.687 20.388V24.522H145.062ZM148.728 20.7C149.118 20.7 149.464 20.6133 149.768 20.44C150.08 20.2667 150.327 20.0153 150.509 19.686C150.691 19.3567 150.782 18.971 150.782 18.529C150.782 18.0783 150.691 17.6927 150.509 17.372C150.327 17.0427 150.08 16.7913 149.768 16.618C149.464 16.4447 149.118 16.358 148.728 16.358C148.338 16.358 147.987 16.4447 147.675 16.618C147.363 16.7913 147.116 17.0427 146.934 17.372C146.752 17.6927 146.661 18.0783 146.661 18.529C146.661 18.971 146.752 19.3567 146.934 19.686C147.116 20.0153 147.363 20.2667 147.675 20.44C147.987 20.6133 148.338 20.7 148.728 20.7ZM154.417 22.091C154.122 22.091 153.871 21.9913 153.663 21.792C153.455 21.584 153.351 21.324 153.351 21.012C153.351 20.6827 153.455 20.4227 153.663 20.232C153.871 20.0327 154.122 19.933 154.417 19.933C154.712 19.933 154.963 20.0327 155.171 20.232C155.379 20.4227 155.483 20.6827 155.483 21.012C155.483 21.324 155.379 21.584 155.171 21.792C154.963 21.9913 154.712 22.091 154.417 22.091ZM159.676 21.987L159.754 20.622C159.814 20.6307 159.871 20.6393 159.923 20.648C159.975 20.6567 160.022 20.661 160.066 20.661C160.334 20.661 160.542 20.5787 160.69 20.414C160.837 20.2493 160.945 20.0283 161.015 19.751C161.093 19.465 161.145 19.1487 161.171 18.802C161.205 18.4467 161.231 18.0913 161.249 17.736L161.366 15.058H166.982V22H165.357V15.994L165.734 16.436H162.432L162.783 15.981L162.692 17.814C162.666 18.4293 162.614 19.0013 162.536 19.53C162.466 20.05 162.354 20.505 162.198 20.895C162.05 21.285 161.842 21.5883 161.574 21.805C161.314 22.0217 160.98 22.13 160.573 22.13C160.443 22.13 160.3 22.117 160.144 22.091C159.996 22.065 159.84 22.0303 159.676 21.987ZM169.17 22V15.058H170.795V19.634L174.63 15.058H176.112V22H174.487V17.424L170.665 22H169.17ZM178.298 22V15.058H179.923V20.622H183.238V15.058H184.863V22H178.298ZM184.395 23.547V21.961L184.772 22H183.238V20.622H185.916V23.547H184.395Z" fill="white"/>
<defs>
<linearGradient id="paint0_linear_1_5" x1="0" y1="34" x2="206.871" y2="-0.768929" gradientUnits="userSpaceOnUse">
<stop stop-color="#2F2482"/>
<stop offset="1" stop-color="#230ADE"/>
</linearGradient>
</defs>
</svg>
