<?xml version="1.0" encoding="UTF-8"?>
<!DOCTYPE svg PUBLIC "-//W3C//DTD SVG 1.1//EN" "http://www.w3.org/Graphics/SVG/1.1/DTD/svg11.dtd">
<!-- Creator: CorelDRAW 2021.5 -->
<svg xmlns="http://www.w3.org/2000/svg" xml:space="preserve" width="14px" height="13px" version="1.1" style="shape-rendering:geometricPrecision; text-rendering:geometricPrecision; image-rendering:optimizeQuality; fill-rule:evenodd; clip-rule:evenodd"
viewBox="0 0 0.74 0.69"
 xmlns:xlink="http://www.w3.org/1999/xlink"
 xmlns:xodm="http://www.corel.com/coreldraw/odm/2003">
 <defs>
  <style type="text/css">
   <![CDATA[
    .fil0 {fill:#2F2482}
   ]]>
  </style>
 </defs>
 <g id="Слой_x0020_1">
  <metadata id="CorelCorpID_0Corel-Layer"/>
  <g id="_2234869694144">
   <path class="fil0" d="M0.11 0.26l0.53 0.01 0 0.31 -0.53 0 0 -0.32zm0.53 -0.1l-0.53 0 0 -0.05 0.52 -0.01c0,-0.05 -0.03,-0.09 -0.07,-0.1 -0.02,0 -0.06,0 -0.08,0 -0.09,0 -0.18,0 -0.26,0 -0.06,0 -0.11,-0.01 -0.16,0.02 -0.03,0.02 -0.06,0.06 -0.06,0.12 0,0.05 0,0.11 0,0.17 0,0.06 0,0.12 0,0.17 0,0.06 -0.01,0.12 0.02,0.16 0.03,0.05 0.08,0.05 0.13,0.05l0.34 0c0.04,0 0.15,0 0.17,-0.01 0.04,-0.01 0.08,-0.04 0.08,-0.09 0,-0.06 0,-0.12 0,-0.18 0,-0.03 0,-0.15 0,-0.17 -0.01,-0.04 -0.06,-0.08 -0.1,-0.08z"/>
   <rect class="fil0" x="0.42" y="0.37" width="0.16" height="0.11" rx="0.61" ry="0.61"/>
  </g>
 </g>
</svg>
